<svg width="100" height="100" viewBox="0 0 100 100" fill="none" xmlns="http://www.w3.org/2000/svg">
<path d="M28.4613 51.7919L33.9567 38.7944H37.6148L29.1667 57.4524C28.598 58.6419 28.0676 59.4879 27.5755 59.9904C27.0833 60.4826 26.5037 60.862 25.8366 61.1286C25.1804 61.385 24.3548 61.5131 23.3596 61.5131C22.4956 61.5131 21.9434 61.467 21.7028 61.3747L21.8012 59.0367L23.294 59.0982C24.4423 59.0982 25.2953 58.5804 25.853 57.5447L26.2631 56.7448L26.8865 55.3759L18.75 38.7944H22.2769L28.4613 51.7919Z" fill="#006CB5"/>
<path d="M58.563 54.0838C58.2677 56.4526 57.3327 58.283 55.7579 59.575C54.194 60.8568 52.1107 61.4978 49.5079 61.4978C46.6864 61.4978 44.4226 60.5492 42.7165 58.6521C41.0214 56.7551 40.1739 54.2171 40.1739 51.0382V48.8848C40.1739 46.8032 40.5676 44.9727 41.355 43.3936C42.1533 41.8144 43.2797 40.6044 44.7343 39.7635C46.1888 38.9124 47.8729 38.4868 49.7867 38.4868C52.3239 38.4868 54.3581 39.1534 55.8891 40.4864C57.4202 41.8093 58.3115 43.6448 58.563 45.9931H55.397C55.1236 44.2088 54.5276 42.9167 53.6089 42.1169C52.7012 41.317 51.4272 40.9171 49.7867 40.9171C47.7745 40.9171 46.1942 41.6144 45.0459 43.009C43.9086 44.4036 43.3399 46.3879 43.3399 48.9617V51.1305C43.3399 53.5608 43.8812 55.4938 44.9639 56.9294C46.0466 58.365 47.5612 59.0828 49.5079 59.0828C51.2577 59.0828 52.5973 58.7137 53.5269 57.9754C54.4674 57.2268 55.0908 55.9296 55.397 54.0838H58.563Z" fill="#006CB5"/>
<path d="M81.25 50.7152C81.25 52.9097 80.8563 54.8272 80.0689 56.468C79.2815 58.0984 78.166 59.3443 76.7224 60.2057C75.2789 61.0671 73.5947 61.4978 71.6699 61.4978C69.7889 61.4978 68.1212 61.0671 66.6667 60.2057C65.2122 59.3341 64.0803 58.0984 63.271 56.4987C62.4727 54.8888 62.0626 53.0276 62.0407 50.9152V49.3001C62.0407 47.1467 62.4399 45.2445 63.2382 43.5935C64.0365 41.9426 65.1629 40.6813 66.6175 39.8096C68.0829 38.9278 69.7561 38.4868 71.6371 38.4868C73.551 38.4868 75.2351 38.9226 76.6896 39.7943C78.1551 40.6556 79.2815 41.9118 80.0689 43.5628C80.8563 45.2035 81.25 47.1159 81.25 49.3001V50.7152ZM78.1168 49.2693C78.1168 46.6134 77.5481 44.5779 76.4108 43.1628C75.2734 41.7375 73.6822 41.0248 71.6371 41.0248C69.6468 41.0248 68.0774 41.7375 66.9291 43.1628C65.7918 44.5779 65.2067 46.5468 65.1739 49.0694V50.7152C65.1739 53.2891 65.748 55.3143 66.8963 56.791C68.0556 58.2574 69.6468 58.9905 71.6699 58.9905C73.7041 58.9905 75.2789 58.2984 76.3944 56.914C77.5098 55.5194 78.084 53.5249 78.1168 50.9306V49.2693Z" fill="#006CB5"/>
<path fill-rule="evenodd" clip-rule="evenodd" d="M93.75 2.5H6.25C4.17893 2.5 2.5 4.17893 2.5 6.25V93.75C2.5 95.8211 4.17893 97.5 6.25 97.5H93.75C95.8211 97.5 97.5 95.8211 97.5 93.75V6.25C97.5 4.17893 95.8211 2.5 93.75 2.5ZM6.25 0C2.79822 0 0 2.79822 0 6.25V93.75C0 97.2018 2.79822 100 6.25 100H93.75C97.2018 100 100 97.2018 100 93.75V6.25C100 2.79822 97.2018 0 93.75 0H6.25Z" fill="#006CB5"/>
</svg>
