<svg width="100" height="100" viewBox="0 0 100 100" fill="none" xmlns="http://www.w3.org/2000/svg">
<path fill-rule="evenodd" clip-rule="evenodd" d="M78.2593 20.8333H20.8333V78.2593L78.2593 20.8333ZM22.8722 79.1667H79.1667V22.8722L22.8722 79.1667ZM18.75 18.75H20.8333H79.1667H81.25V20.8333V79.1667V81.25H79.1667H20.8333H18.75V79.1667V20.8333V18.75ZM41.6667 27.0833H29.1667V29.1667H41.6667V27.0833ZM41.6667 33.3333H29.1667V35.4167H41.6667V33.3333ZM58.3333 62.5H70.8333V64.5833H58.3333V62.5ZM70.8333 68.75H58.3333V70.8333H70.8333V68.75Z" fill="#006CB5"/>
<path fill-rule="evenodd" clip-rule="evenodd" d="M93.75 2.5H6.25C4.17893 2.5 2.5 4.17893 2.5 6.25V93.75C2.5 95.8211 4.17893 97.5 6.25 97.5H93.75C95.8211 97.5 97.5 95.8211 97.5 93.75V6.25C97.5 4.17893 95.8211 2.5 93.75 2.5ZM6.25 0C2.79822 0 0 2.79822 0 6.25V93.75C0 97.2018 2.79822 100 6.25 100H93.75C97.2018 100 100 97.2018 100 93.75V6.25C100 2.79822 97.2018 0 93.75 0H6.25Z" fill="#006CB5"/>
</svg>
