<svg width="100" height="100" viewBox="0 0 100 100" fill="none" xmlns="http://www.w3.org/2000/svg">
<path fill-rule="evenodd" clip-rule="evenodd" d="M54.1667 18.75H56.25V50H81.25V52.0833H56.25V81.25H54.1667V18.75ZM43.75 29.1667H45.8333V70.8333H43.75V52.0833H18.75V50H43.75V29.1667ZM35.4167 39.5833H25V41.6667H35.4167V39.5833ZM70.8333 39.5833H75V41.6667H70.8333V45.8333H68.75V41.6667H64.5833V39.5833H68.75V35.4167H70.8333V39.5833Z" fill="#006CB5"/>
<path fill-rule="evenodd" clip-rule="evenodd" d="M93.75 2.5H6.25C4.17893 2.5 2.5 4.17893 2.5 6.25V93.75C2.5 95.8211 4.17893 97.5 6.25 97.5H93.75C95.8211 97.5 97.5 95.8211 97.5 93.75V6.25C97.5 4.17893 95.8211 2.5 93.75 2.5ZM6.25 0C2.79822 0 0 2.79822 0 6.25V93.75C0 97.2018 2.79822 100 6.25 100H93.75C97.2018 100 100 97.2018 100 93.75V6.25C100 2.79822 97.2018 0 93.75 0H6.25Z" fill="#006CB5"/>
</svg>
