<svg width="100" height="100" viewBox="0 0 100 100" fill="none" xmlns="http://www.w3.org/2000/svg">
<path fill-rule="evenodd" clip-rule="evenodd" d="M50 27.6042V18.75H47.9167V27.6042L36.0281 27.6042H33.6225L34.8253 29.6875L47.7555 52.0833L35.4167 52.0833V54.1667L47.9167 54.1667V81.25H50V54.1667H62.5V52.0833L50.1611 52.0833L63.0914 29.6875L64.2942 27.6042H61.8886L50 27.6042ZM47.9167 29.6875L37.2309 29.6875L47.9167 48.1958V29.6875ZM50 48.1958V29.6875L60.6858 29.6875L50 48.1958ZM18.75 39.5833H26.5625V37.9187L28.6458 38.4342L33.1632 39.5519L37.5 40.625L33.1632 41.6981L28.6458 42.8158L26.5625 43.3313L26.5625 41.6667H18.75V39.5833ZM70.3125 39.5833H62.5V41.6667H70.3125V43.3313L72.3958 42.8158L76.9132 41.6981L81.25 40.625L76.9132 39.5519L72.3958 38.4342L70.3125 37.9187V39.5833ZM18.75 58.3333H26.5625V56.6687L28.6458 57.1842L33.1632 58.3019L37.5 59.375L33.1632 60.4481L28.6458 61.5658L26.5625 62.0813L26.5625 60.4167H18.75V58.3333ZM70.3125 58.3333H62.5V60.4167H70.3125V62.0813L72.3958 61.5658L76.9132 60.4481L81.25 59.375L76.9132 58.3019L72.3958 57.1842L70.3125 56.6687V58.3333Z" fill="#006CB5"/>
<path fill-rule="evenodd" clip-rule="evenodd" d="M93.75 2.5H6.25C4.17893 2.5 2.5 4.17893 2.5 6.25V93.75C2.5 95.8211 4.17893 97.5 6.25 97.5H93.75C95.8211 97.5 97.5 95.8211 97.5 93.75V6.25C97.5 4.17893 95.8211 2.5 93.75 2.5ZM6.25 0C2.79822 0 0 2.79822 0 6.25V93.75C0 97.2018 2.79822 100 6.25 100H93.75C97.2018 100 100 97.2018 100 93.75V6.25C100 2.79822 97.2018 0 93.75 0H6.25Z" fill="#006CB5"/>
</svg>
