<svg width="100" height="100" viewBox="0 0 100 100" fill="none" xmlns="http://www.w3.org/2000/svg">
<path fill-rule="evenodd" clip-rule="evenodd" d="M64.5833 31.25V47.9167H81.25V50H64.5833V66.6667H62.5V50.1611L40.1042 63.0914L38.0208 64.2942V61.8886V50H18.75V47.9167H38.0208V36.0281V33.6225L40.1042 34.8253L62.5 47.7555V31.25H64.5833ZM40.1042 37.2309L60.4167 48.9583L40.1042 60.6858L40.1042 37.2309Z" fill="#006CB5"/>
<path fill-rule="evenodd" clip-rule="evenodd" d="M93.75 2.5H6.25C4.17893 2.5 2.5 4.17893 2.5 6.25V93.75C2.5 95.8211 4.17893 97.5 6.25 97.5H93.75C95.8211 97.5 97.5 95.8211 97.5 93.75V6.25C97.5 4.17893 95.8211 2.5 93.75 2.5ZM6.25 0C2.79822 0 0 2.79822 0 6.25V93.75C0 97.2018 2.79822 100 6.25 100H93.75C97.2018 100 100 97.2018 100 93.75V6.25C100 2.79822 97.2018 0 93.75 0H6.25Z" fill="#006CB5"/>
</svg>
