<svg width="25" height="21" viewBox="0 0 25 21" fill="none" xmlns="http://www.w3.org/2000/svg">
<path fill-rule="evenodd" clip-rule="evenodd" d="M0.737101 0C0.330011 0 0 0.330011 0 0.737101C0 1.14419 0.330011 1.4742 0.7371 1.4742H4.35124L8.4035 16.5974C8.50039 16.959 8.84996 17.1854 9.21134 17.1376H21.4988C21.9059 17.1376 22.2359 16.8076 22.2359 16.4005C22.2359 15.9934 21.9059 15.6634 21.4988 15.6634H9.67943L9.07045 13.3907H21.8059C21.9536 13.3907 22.0911 13.3472 22.2064 13.2725C22.3872 13.1812 22.5299 13.0162 22.5865 12.8051L24.9747 3.89212C24.9924 3.82593 25.0006 3.75943 25 3.69409L25 3.6855C25 3.27841 24.67 2.9484 24.2629 2.9484H6.27246L5.63061 0.552977C5.60642 0.462711 5.56649 0.380868 5.51455 0.309614C5.38091 0.122203 5.16173 0 4.91401 0H0.737101ZM6.66747 4.4226L8.67544 11.9165H21.2984L23.3063 4.4226H6.66747ZM12.1007 19.2875C12.1007 20.1356 11.4132 20.8231 10.5651 20.8231C9.71701 20.8231 9.02949 20.1356 9.02949 19.2875C9.02949 18.4394 9.71701 17.7518 10.5651 17.7518C11.4132 17.7518 12.1007 18.4394 12.1007 19.2875ZM19.7174 20.8231C20.5655 20.8231 21.2531 20.1356 21.2531 19.2875C21.2531 18.4394 20.5655 17.7518 19.7174 17.7518C18.8693 17.7518 18.1818 18.4394 18.1818 19.2875C18.1818 20.1356 18.8693 20.8231 19.7174 20.8231Z" fill="white"/>
</svg>
