<svg width="35" height="46" viewBox="0 0 35 46" fill="none" xmlns="http://www.w3.org/2000/svg">
<rect width="35" height="45.5" fill="#006CB5"/>
<path fill-rule="evenodd" clip-rule="evenodd" d="M33.6 1.4H1.4V44.1H33.6V1.4ZM0 0V45.5H35V0H0Z" fill="#006CB5"/>
<path fill-rule="evenodd" clip-rule="evenodd" d="M7 7H14V10.5H10.5V21H14V24.5H10.5V35H14V38.5H7V35V24.5V21V10.5V7Z" fill="white"/>
<path fill-rule="evenodd" clip-rule="evenodd" d="M28.5195 21.0175L24.9512 21L23.4883 24.5679L22.0322 21L18.4639 21.0175L21.6631 29.0455L17.5 38.5L21.2666 38.5188L23.4883 33.6456L25.9834 38.5376L29.75 38.5188L25.3203 29.0455L28.5195 21.0175Z" fill="white"/>
</svg>
