<svg width="323" height="70" viewBox="0 0 323 70" fill="none" xmlns="http://www.w3.org/2000/svg">
<path d="M125.19 37.5253L124.619 39.5488C124.036 41.6164 123.986 43.0545 124.467 43.8628C124.63 44.136 124.871 44.3638 125.19 44.545V37.5253ZM120.659 44.8207H116.904L121.483 28.5814C120.778 29.1265 120.142 29.7279 119.573 30.3859C118.385 31.759 117.224 34.0985 116.091 37.4066C115.717 38.4968 114.987 40.9685 113.901 44.8207H110.146L111.068 41.5504C111.932 38.4871 112.757 36.0348 113.543 34.1926C114.777 31.2983 116.202 29.0519 117.821 27.4548C118.765 26.5337 119.844 25.7254 121.058 25.0296H125.19V28.7519L120.659 44.8207ZM131.419 27.4524C130.33 27.6249 129.454 27.9961 128.791 28.5683C127.844 29.3852 127.081 30.8181 126.503 32.8673L125.19 37.5253V44.545C125.811 44.8978 126.728 45.0742 127.942 45.0742C129.374 45.0742 130.533 44.8242 131.419 44.3232V38.5055H131.171L130.71 40.1404C130.53 40.78 130.322 41.222 130.086 41.4657C129.796 41.7855 129.375 41.9459 128.825 41.9459C128.24 41.9459 127.901 41.8039 127.805 41.5219C127.709 41.2404 127.752 40.78 127.932 40.1404L128.885 36.7573H131.419V33.7124H129.744L130.117 32.3885C130.308 31.7111 130.513 31.2504 130.732 31.0067C130.911 30.7949 131.14 30.6456 131.419 30.5584V27.4524ZM125.19 25.0296H126.239L125.19 28.7519V25.0296ZM131.419 44.3232V38.5055H134.65L134.356 39.5488C133.773 41.6164 133.013 43.0545 132.076 43.8628C131.877 44.0343 131.658 44.1874 131.419 44.3232ZM135.997 42.2559V44.8207H135.273L135.997 42.2559ZM135.997 28.094V33.7332L135.143 36.7573H131.419V33.7124H132.522L132.896 32.3885C133.081 31.7306 133.136 31.2702 133.06 31.0067C132.96 30.649 132.627 30.4702 132.06 30.4702C131.823 30.4702 131.609 30.4997 131.419 30.5584V27.4524C131.887 27.3788 132.395 27.342 132.942 27.342C134.375 27.342 135.393 27.5919 135.997 28.094ZM135.997 33.7332L136.24 32.8673C136.823 30.7997 136.874 29.362 136.392 28.5533C136.29 28.3818 136.158 28.2287 135.997 28.094V33.7332ZM148.781 41.1216L147.738 44.8207H148.781V41.1216ZM148.781 27.5673V31.2663L144.959 44.8207H141.505L143.723 36.9545H140.944L138.727 44.8207H135.997V42.2559L140.137 27.5673H143.591L141.874 33.6561H144.653L146.37 27.5673H148.781ZM148.781 31.2663L149.823 27.5673H148.781V31.2663ZM161.984 41.0761L160.214 47.3584H161.984V41.0761ZM161.984 25.0296V31.3105L158.175 44.8207H154.421L159 28.5814H156.071L151.493 44.8207H148.781V41.1216L153.317 25.0296H161.984ZM161.984 31.3105L163.756 25.0296H161.984V31.3105ZM168.156 27.5673V31.6424C168.082 31.8288 168.012 32.0392 167.945 32.2757L165.728 40.1404C165.543 40.7994 165.491 41.2501 165.571 41.4938C165.67 41.7952 165.995 41.9459 166.545 41.9459C167.097 41.9459 167.516 41.7855 167.807 41.4657C167.928 41.3213 168.044 41.1057 168.156 40.8216V44.9846C167.852 45.0447 167.531 45.0742 167.19 45.0742C166.573 45.0742 166.078 44.9051 165.706 44.5669C165.458 44.3232 165.174 43.8812 164.853 43.2416L163.693 47.3584H161.984V41.0761L165.794 27.5673H168.156ZM174.139 39.6064C173.572 41.6421 173.526 43.0618 174.002 43.8628C174.043 43.9301 174.088 43.9965 174.139 44.0586V39.6064ZM174.139 27.9777V32.3173C174.111 32.4239 174.08 32.5319 174.05 32.642L172.189 39.2391C171.623 41.2501 171.107 42.6035 170.645 43.2982C170.036 44.2169 169.206 44.779 168.156 44.9846V40.8216C168.233 40.6279 168.308 40.4001 168.381 40.1404L170.598 32.2757C170.773 31.6549 170.82 31.2222 170.739 30.9785C170.65 30.6407 170.331 30.4702 169.781 30.4702C169.23 30.4702 168.833 30.6074 168.589 30.8796C168.433 31.0546 168.289 31.308 168.156 31.6424V27.5673H169.023L168.554 29.2307C169.378 28.5533 170 28.0929 170.42 27.8492C171.05 27.511 171.714 27.342 172.416 27.342C173.204 27.342 173.778 27.5541 174.139 27.9777ZM174.139 32.3173C174.533 30.8462 174.675 29.7512 174.567 29.0335C174.509 28.5974 174.367 28.2461 174.139 27.9777V32.3173ZM179.961 27.6826V31.6573C179.866 31.8739 179.774 32.1361 179.687 32.4448L177.565 39.9714C177.384 40.6109 177.335 41.0529 177.417 41.2966C177.51 41.6164 177.841 41.7758 178.407 41.7758C178.959 41.7758 179.378 41.6164 179.669 41.2966C179.769 41.1755 179.867 41.0064 179.961 40.7897V44.7422C179.252 44.9637 178.425 45.0742 177.478 45.0742C175.797 45.0742 174.684 44.736 174.139 44.0586V39.6064L174.154 39.5488L176.039 32.8673C176.616 30.8181 177.379 29.3852 178.327 28.5683C178.775 28.1822 179.32 27.8871 179.961 27.6826ZM185.516 42.2216L184.783 44.8207H185.516V42.2216ZM185.516 28.093V33.786L183.891 39.5488C183.314 41.598 182.555 43.0312 181.615 43.8482C181.165 44.2402 180.614 44.5377 179.961 44.7422V40.7897C180.058 40.5668 180.152 40.295 180.243 39.9714L182.366 32.4448C182.54 31.8236 182.586 31.3913 182.506 31.1476C182.401 30.8094 182.082 30.6407 181.547 30.6407C180.997 30.6407 180.576 30.7997 180.285 31.1195C180.172 31.2455 180.065 31.4243 179.961 31.6573V27.6826C180.679 27.4558 181.517 27.342 182.478 27.342C183.9 27.342 184.914 27.5919 185.516 28.093ZM185.516 33.786L185.775 32.8673C186.353 30.8181 186.402 29.3852 185.924 28.5683C185.819 28.3905 185.684 28.2315 185.516 28.093V33.786ZM203.297 40.3352C203.232 40.5595 203.167 40.7859 203.103 41.015L202.029 44.8207H203.297V40.3352ZM203.297 27.5673V32.0649L199.701 44.8207H196.397L200.387 30.6688C199.003 31.9083 197.886 33.3562 197.036 35.0095C196.38 36.2688 195.761 37.9323 195.178 39.9995L193.819 44.8207H190.665L192.025 39.9995C192.608 37.9323 192.926 36.2688 192.981 35.0095C193.063 33.3562 192.762 31.9083 192.077 30.6688L188.087 44.8207H185.516V42.2216L189.647 27.5673H193.928C195 29.0335 195.622 30.5841 195.795 32.2194C196.901 30.5463 198.39 28.9957 200.261 27.5673H203.297ZM203.297 32.0649L204.566 27.5673H203.297V32.0649ZM209.908 26.4173V32.0135C209.039 33.8829 208.332 35.7838 207.786 37.7166H209.908V44.8207H208.788L209.86 41.015H206.856L205.784 44.8207H203.297V40.3352C205.053 34.3287 207.257 29.689 209.908 26.4173ZM215.135 43.8787L214.87 44.8207H215.135V43.8787ZM215.135 27.0798V33.9401C214.854 36.0605 214.347 38.4197 213.615 41.015L212.542 44.8207H209.908V37.7166H210.79C211.723 34.4082 212.129 31.1941 212.007 28.0745C211.225 29.3717 210.526 30.6848 209.908 32.0135V26.4173C210.307 25.9236 210.718 25.4608 211.139 25.0296H214.568C214.81 25.6566 214.999 26.3413 215.135 27.0798ZM215.135 33.9401C215.49 31.2799 215.49 28.9932 215.135 27.0798V33.9401ZM220.87 27.5673V36.8702H220.415L219.088 41.5785H219.939C220.295 41.5785 220.605 41.5466 220.87 41.4831V44.7606C220.532 44.8009 220.176 44.8207 219.801 44.8207H215.135V43.8787L219.734 27.5673H220.87ZM222.808 27.5673V30.7251H222.148L221.226 33.9954H221.952C222.267 33.9954 222.553 33.9551 222.808 33.8742V44.2141C222.252 44.4912 221.605 44.6735 220.87 44.7606V41.4831C221.15 41.4143 221.378 41.3101 221.556 41.1706C221.899 40.8973 222.189 40.3474 222.421 39.5207C222.919 37.7545 222.609 36.8702 221.492 36.8702H220.87V27.5673H222.808ZM227.904 44.31V44.8207H227.761L227.904 44.31ZM227.904 28.7578V30.9625C227.849 31.2407 227.776 31.5372 227.687 31.8521C227.268 33.3377 226.433 34.4644 225.181 35.2348C225.751 35.8181 226.075 36.4757 226.152 37.2094C226.222 37.8475 226.103 38.7124 225.797 39.8023C225.283 41.6261 224.564 42.9184 223.639 43.6791C223.389 43.886 223.112 44.0638 222.808 44.2141V33.8742C223.544 33.644 224.036 33.0829 224.287 32.1913C224.564 31.2139 224.292 30.7251 223.475 30.7251H222.808V27.5673H224.515C226.15 27.5673 227.191 27.811 227.638 28.2999C227.75 28.4273 227.838 28.579 227.904 28.7578ZM227.904 30.9625C228.097 30.0098 228.097 29.2748 227.904 28.7578V30.9625ZM237.254 36.6275L236.43 39.5488C235.847 41.6164 235.797 43.0545 236.278 43.8628C236.482 44.2044 236.807 44.4739 237.254 44.6724V36.6275ZM237.254 27.5673V30.866H235.149L231.215 44.8207H227.904V44.31L231.695 30.866H229.217L230.147 27.5673H237.254ZM237.254 30.866H237.627L238.557 27.5673H237.254V30.866ZM242.237 27.6826V31.6573C242.141 31.8739 242.05 32.1361 241.963 32.4448L239.84 39.9714C239.661 40.6109 239.611 41.0529 239.692 41.2966C239.786 41.6164 240.117 41.7758 240.683 41.7758C241.235 41.7758 241.655 41.6164 241.946 41.2966C242.046 41.1755 242.142 41.0064 242.237 40.7897V44.7422C241.528 44.9637 240.701 45.0742 239.753 45.0742C238.695 45.0742 237.862 44.9405 237.254 44.6724V36.6275L238.315 32.8673C238.892 30.8181 239.654 29.3852 240.603 28.5683C241.051 28.1822 241.596 27.8871 242.237 27.6826ZM247.792 42.2216L247.059 44.8207H247.792V42.2216ZM247.792 28.093V33.786L246.167 39.5488C245.59 41.598 244.831 43.0312 243.891 43.8482C243.441 44.2402 242.89 44.5377 242.237 44.7422V40.7897C242.334 40.5668 242.427 40.295 242.519 39.9714L244.641 32.4448C244.816 31.8236 244.863 31.3913 244.782 31.1476C244.676 30.8094 244.357 30.6407 243.824 30.6407C243.272 30.6407 242.853 30.7997 242.562 31.1195C242.448 31.2455 242.34 31.4243 242.237 31.6573V27.6826C242.955 27.4558 243.793 27.342 244.754 27.342C246.177 27.342 247.189 27.5919 247.792 28.093ZM247.792 33.786L248.052 32.8673C248.629 30.8181 248.678 29.3852 248.2 28.5683C248.095 28.3905 247.959 28.2315 247.792 28.093V33.786ZM265.956 38.9805L265.366 41.0713C264.828 42.9809 265.025 44.2131 265.956 44.7655V38.9805ZM265.956 27.5673V30.708L261.978 44.8207H258.673L262.663 30.6688C261.279 31.9083 260.162 33.3562 259.311 35.0095C258.657 36.2688 258.037 37.9323 257.454 39.9995L256.095 44.8207H252.941L254.3 39.9995C254.883 37.9323 255.202 36.2688 255.256 35.0095C255.339 33.3562 255.038 31.9083 254.354 30.6688L250.363 44.8207H247.792V42.2216L251.923 27.5673H256.204C257.276 29.0335 257.898 30.5841 258.071 32.2194C259.177 30.5463 260.665 28.9957 262.537 27.5673H265.956ZM265.956 30.708V27.5673H266.842L265.956 30.708ZM270.92 43.6583L270.592 44.8207H270.92V43.6583ZM270.92 33.628V36.6362C270.273 37.1458 269.816 37.7312 269.551 38.3926C269.476 38.5996 269.401 38.8346 269.327 39.0982L269.033 40.1404C268.853 40.78 268.795 41.222 268.859 41.4657C268.97 41.7855 269.3 41.9459 269.851 41.9459C270.301 41.9459 270.658 41.8441 270.92 41.6435V43.275C269.438 44.4936 268.284 45.1023 267.459 45.1023C266.836 45.1023 266.335 44.9898 265.956 44.7655V38.9805L266.09 38.5055C266.349 37.5854 266.67 36.8333 267.051 36.2504C267.715 35.2546 268.93 34.4082 270.695 33.7124L270.92 33.628ZM270.92 28.0256V32.7829H268.054L268.372 31.6549C268.822 30.0574 269.552 28.921 270.56 28.2436C270.675 28.1652 270.795 28.0929 270.92 28.0256ZM277.748 44.8158L277.746 44.8207H277.748V44.8158ZM277.748 29.9178V30.1518C277.734 30.7546 277.612 31.4625 277.383 32.2757L273.846 44.8207H270.92V43.6583L271.061 43.1573C271.013 43.1976 270.967 43.2368 270.92 43.275V41.6435C270.978 41.598 271.031 41.549 271.079 41.4938C271.293 41.2685 271.495 40.8178 271.686 40.1404L273.006 35.4616C272.077 35.9122 271.415 36.2786 271.019 36.5601C270.985 36.5858 270.953 36.6118 270.92 36.6362V33.628C271.605 33.3697 272.573 33.0117 273.825 32.5576L273.952 32.1055C274.12 31.5042 274.153 31.0816 274.046 30.8379C273.94 30.5928 273.62 30.4702 273.086 30.4702C272.451 30.4702 271.988 30.6969 271.693 31.1476C271.546 31.3729 271.352 31.9181 271.107 32.7829H270.92V28.0256C271.757 27.5701 272.815 27.342 274.093 27.342C275.711 27.342 276.788 27.6985 277.321 28.4127C277.59 28.7912 277.732 29.2922 277.748 29.9178ZM277.748 30.1518C277.749 30.0723 277.749 29.9939 277.748 29.9178V30.1518ZM286.749 38.4586L284.955 44.8207H286.749V38.4586ZM286.749 27.5673V30.866H285.135L281.201 44.8207H277.748V44.8158L281.68 30.866H279.203L280.133 27.5673H286.749ZM286.749 30.866H287.614L288.543 27.5673H286.749V30.866ZM298.313 40.3231L297.045 44.8207H298.313V40.3231ZM298.313 27.5673V32.0649L294.717 44.8207H291.263L292.796 39.3797C291.24 41.8233 289.678 43.6375 288.11 44.8207H286.749V38.4586L289.82 27.5673H293.274L289.887 39.5769C291.656 38.3364 293.236 35.9306 294.626 32.3604C295.012 31.3448 295.513 29.7477 296.127 27.5673H298.313ZM298.313 32.0649L299.581 27.5673H298.313V32.0649ZM310.498 38.4919L310.494 38.5055L309.771 41.0713C309.206 43.0715 309.449 44.3284 310.498 44.8391V38.4919ZM310.498 27.5673V30.3883C309.657 32.0871 308.434 33.6183 306.827 34.9814C307.557 36.2407 307.859 37.7729 307.735 39.5769C307.647 40.8362 307.287 42.5841 306.656 44.8207H303.177C303.686 43.0163 304.015 41.6445 304.163 40.705C304.391 39.1263 304.334 37.8475 303.992 36.8702C303.529 37.1531 303.037 37.4153 302.518 37.6601L300.499 44.8207H298.313V40.3231L301.909 27.5673H305.363L303.297 34.897C305.517 33.3562 307.099 30.9125 308.042 27.5673H310.498ZM310.498 30.3883V27.5673H311.521C311.505 27.6239 311.476 27.7267 311.433 27.8773C311.402 27.9902 311.376 28.0843 311.354 28.1589C311.136 28.9318 310.85 29.6755 310.498 30.3883ZM315.323 43.6583L314.996 44.8207H315.323V43.6583ZM315.323 33.628V36.6362C314.677 37.1458 314.221 37.7312 313.955 38.3926C313.88 38.5996 313.805 38.8346 313.731 39.0982L313.437 40.1404C313.257 40.78 313.198 41.222 313.264 41.4657C313.373 41.7855 313.704 41.9459 314.254 41.9459C314.705 41.9459 315.062 41.8441 315.323 41.6435V43.275C313.841 44.4936 312.687 45.1023 311.863 45.1023C311.313 45.1023 310.858 45.0155 310.498 44.8391V38.4919C310.757 37.5767 311.076 36.8299 311.455 36.2504C312.119 35.2546 313.334 34.4082 315.099 33.7124L315.323 33.628ZM315.323 28.0256V32.7829H312.458L312.775 31.6549C313.226 30.0574 313.955 28.921 314.964 28.2436C315.078 28.1652 315.199 28.0929 315.323 28.0256ZM315.323 44.8207V43.6583L315.465 43.1573C315.418 43.1976 315.37 43.2368 315.323 43.275V41.6435C315.382 41.598 315.435 41.549 315.483 41.4938C315.697 41.2685 315.9 40.8178 316.09 40.1404L317.409 35.4616C316.481 35.9122 315.819 36.2786 315.422 36.5601C315.389 36.5858 315.356 36.6118 315.323 36.6362V33.628C316.009 33.3697 316.977 33.0117 318.228 32.5576L318.355 32.1055C318.525 31.5042 318.556 31.0816 318.451 30.8379C318.344 30.5928 318.024 30.4702 317.49 30.4702C316.856 30.4702 316.392 30.6969 316.098 31.1476C315.951 31.3729 315.755 31.9181 315.512 32.7829H315.323V28.0256C316.162 27.5701 317.22 27.342 318.498 27.342C320.116 27.342 321.191 27.6985 321.724 28.4127C322.274 29.1832 322.296 30.4702 321.787 32.2757L318.249 44.8207H315.323Z" fill="#006CB5"/>
<path fill-rule="evenodd" clip-rule="evenodd" d="M47.4533 53.6296L46.7801 55.9653L43.4188 52.3471L42.0095 50.8309H18.6331L24.1207 31.6755L24.6512 29.8319H16.6107C17.9938 28.0889 18.667 26.6473 20.6516 25.153H47.0597L47.4533 23.7885V35.2166L43.4623 37.638L45.7123 29.8319H28.8053L28.3747 31.3286L28.3725 31.33L24.1272 46.152H43.3578L45.6405 44.6354L47.4533 43.4313V53.6296ZM74.9335 29.8319L74.4831 31.3936H74.4822L68.9142 50.8309H48.2591L47.4533 53.6296V43.4313L51.0864 41.0173L49.6074 46.152H66.101L70.2542 31.6533L70.7791 29.8319H56.3302L51.4452 32.7949L47.4533 35.2166V23.7885L49.3096 17.3459L54.501 22.1889L57.6776 25.153H91.44C91.9468 26.6755 91.4465 28.2434 91.3553 29.8319H74.9335Z" fill="#006CB5"/>
<path fill-rule="evenodd" clip-rule="evenodd" d="M41.1367 66.8804C22.9486 69.6341 7.536 65.5232 4.3292 52.6737C0.839426 38.6881 17.9986 17.1065 43.3539 7.31271C47.1208 5.85759 50.8498 4.71844 54.4817 3.88065L54.7505 2.16338L54.4786 3.89904C56.2338 3.52545 57.6321 3.272 59.3494 3.03555L59.9289 1.13463C58.2227 1.42489 56.4946 1.76792 54.7505 2.16338C50.5483 3.18727 46.2312 4.57261 41.878 6.33534C14.4481 17.4423 -3.48635 41.1796 0.571855 55.0496C4.63037 68.9185 20.8487 72.162 40.5198 68.7459L41.1367 66.8804Z" fill="#006CB5"/>
<path class="accent" fill-rule="evenodd" clip-rule="evenodd" d="M45.7317 67.711C49.9338 66.6867 54.251 65.3014 58.6042 63.539C86.0341 52.4321 104.127 29.2346 99.9103 14.8244C96.1172 1.86202 80.1597 -2.00995 61.1911 0.929794L60.6375 2.82585C78.1773 0.747162 93.3222 5.85864 96.153 17.2006C99.959 32.4549 82.4836 52.7678 57.1283 62.5616C53.3614 64.0168 49.6336 65.1545 46.0005 65.9937C44.79 66.2507 43.5884 66.4788 42.3976 66.6784L41.9244 68.4495C43.1035 68.2276 44.5366 67.9814 45.7317 67.711Z" fill="#EE741D"/>
</svg>
