<svg width="25" height="19" viewBox="0 0 25 19" fill="none" xmlns="http://www.w3.org/2000/svg">
<path d="M12.4991 18.5817C12.497 18.5817 12.4947 18.5817 12.4924 18.5817C11.7381 18.5765 5.06921 18.5157 3.17979 18.0047C1.85933 17.6497 0.816966 16.6085 0.461054 15.2879C-0.0333311 13.4318 -0.0018598 9.85841 0.00157343 9.57307C-0.00166906 9.28906 -0.0335218 5.68607 0.459528 3.81477C0.460101 3.81305 0.460482 3.81115 0.461054 3.80943C0.81296 2.50385 1.87879 1.43039 3.17655 1.07448C3.17979 1.07353 3.18323 1.07276 3.18647 1.07181C5.05453 0.580856 11.7365 0.520775 12.4924 0.515625H12.506C13.2622 0.520775 19.9488 0.581619 21.8209 1.09336C23.1379 1.44737 24.1795 2.48725 24.5364 3.80619C25.0493 5.67883 25.0018 9.28963 24.9966 9.59443C25.0003 9.89465 25.0302 13.436 24.5387 15.3014C24.5383 15.3033 24.5377 15.305 24.5374 15.3068C24.1812 16.6274 23.1391 17.6686 21.8171 18.024C21.8154 18.0245 21.8135 18.0249 21.8117 18.0255C19.9439 18.5163 13.2617 18.5763 12.506 18.5817C12.5037 18.5817 12.5014 18.5817 12.4991 18.5817ZM2.34742 4.31564C1.91331 5.96741 1.95432 9.52443 1.9547 9.56029V9.58604C1.94173 10.5725 1.98732 13.4294 2.34761 14.7824C2.52233 15.4304 3.03636 15.9436 3.68829 16.1189C5.08237 16.496 10.5139 16.6146 12.4991 16.6286C14.4894 16.6146 19.929 16.4992 21.3128 16.1372C21.9626 15.9614 22.4749 15.4498 22.6508 14.8011C23.0115 13.4282 23.0567 10.5853 23.0435 9.60511C23.0435 9.59481 23.0435 9.58451 23.0437 9.57421C23.0616 8.5759 23.0263 5.68569 22.6525 4.32175C22.6521 4.32041 22.6517 4.31908 22.6516 4.31774C22.4761 3.66695 21.9619 3.15368 21.3099 2.9784C19.9294 2.60093 14.489 2.48268 12.4991 2.46875C10.5101 2.48268 5.07589 2.59788 3.68791 2.95951C3.04838 3.1369 2.52271 3.66848 2.34742 4.31564ZM23.5944 15.0527H23.5949H23.5944ZM10.0098 13.5035V5.59357L16.8458 9.54865L10.0098 13.5035Z" fill="#061231"/>
</svg>
